<?xml version="1.0" encoding="utf-8"?>
<!-- Generator: Adobe Illustrator 21.0.0, SVG Export Plug-In . SVG Version: 6.00 Build 0)  -->
<svg version="1.1" id="Layer_1" xmlns="http://www.w3.org/2000/svg" xmlns:xlink="http://www.w3.org/1999/xlink" x="0px" y="0px"
	 viewBox="0 220 864 420" style="enable-background:new 0 0 864 864;" xml:space="preserve">
<style type="text/css">
	.st0{fill:#F5F5F5;}
	.st1{fill:#F5F5F5;}
	.st2{fill:#F5F5F5;}
	.st3{fill:#F5F5F5;}
	.st4{fill:#F5F5F5;}
	.st5{fill:#F5F5F5;}
	.st6{fill:#050505;}
	.st7{fill:#F5F5F5;}
</style>
<g>
	<g>
		<path class="st6" d="M160.3,452.9c-43.7-77.7-16.1-176.1,61.6-219.7c4.9-2.8,9.9-5.2,15-7.4c-29.8,0.3-59.8,7.9-87.6,23.5
			C61.2,298.7,29.9,410.2,79.4,498.3c49.5,88.1,161.1,119.4,249.1,69.8l0,0c27.8-15.6,49.9-37.4,65.6-62.6
			c-4.5,3.2-9.2,6.2-14.2,8.9C302.3,558.1,204,530.6,160.3,452.9z"/>
		<polygon class="st6" points="701.4,322.4 725.4,309.8 749.3,322.4 744.8,295.7 764.2,276.7 737.4,272.8 725.4,248.5 713.4,272.8 
			686.5,276.7 705.9,295.7 		"/>
		<polygon class="st6" points="687.9,345.1 680.1,329.4 672.4,345.1 655,347.6 667.6,359.8 664.6,377.1 680.1,369 695.6,377.1 
			692.7,359.8 705.2,347.6 		"/>
		<polygon class="st6" points="817.5,374.5 780.6,369.1 764.2,335.8 747.7,369.1 710.9,374.5 737.5,400.5 731.2,437.1 764.2,419.8 
			797.1,437.1 790.8,400.5 		"/>
	</g>
	<g>
		<path class="st7" d="M208.6,406.9c-5.4-8.2-15-7.2-20.6-3.5c-7.2,4.9-9.1,12.2-8.4,20.6c0.9,13.3,11.9,23.9,25,24.1
			c11.5,0,20.1-5.4,26.9-14c9.1-11.7,10.3-24.8,6.1-38.8c-3.7-12.4-11-22.9-18.9-33c-10.5-13.3-19.9-26.9-22.7-44.4
			c-3.3-20.3,9.8-40.7,30.2-45.6c10.8-2.6,18.9,1.2,25.7,8.7c4.7,5.1,6.3,11.7,2.8,18.5c-2.6,4.9-6.5,8-12.2,9.4
			c-4.4,0.9-6.3-1.6-8.7-4.4c-0.7-0.9-3.3-1.4-4.4-0.9c-1.2,0.5-2.3,2.3-2.6,3.7c-1.2,7.2,7,13.8,15.2,12.2
			c10.8-2.3,18.5-8.7,22.4-18.7c8.4-21-8.7-39.3-26.2-41.6c-18.7-2.6-33.7,4.7-44.9,19.4c-11.7,15.7-14.7,33.2-9.6,52.1
			c4.2,15.7,13.1,28.3,22.9,40.7c7.7,9.8,15.7,19.6,18.9,32c3.7,15-1.9,26.4-14.7,33c-10.3,5.1-21,0-22.9-14
			c-0.7-4.2,1.4-8.2,5.4-10.3c4.2-2.3,7.2,0,10.1,3c1.1,1.1,2.6,2,3.9,2.8C210.9,412.9,211.1,410.6,208.6,406.9z"/>
		<path class="st7" d="M264.3,338.9c-0.9,7.7-1.6,15.4-2.3,23.2c-2.1,21.3-0.7,42.6,4.7,63.4c1.6,6.5,5.1,12.9,8.7,18.9
			c4.4,7.7,15.9,9.6,21.7,0.7c1.9-2.8,4.2-5.6,5.4-8.9c4.9-12.4,9.4-24.8,14-37.2c1.2-3.5,2.6-6.8,4.4-11.5c1.9,9.1,3,16.6,4.9,23.9
			c1.9,7.5,4,15.2,7,22.4c2.3,5.8,5.4,11.9,9.6,16.4c8.7,8.9,15.9,10.1,24.8-0.9c6.8-8.4,12.2-17.8,16.1-27.8c0.9-2.3,2.1-4.7,3.3-7
			c1.6-0.2,3-0.5,4.4-0.5c4.9-0.2,10.1,0.5,14.7-0.7c12.5-3.2,21.8-10.3,29.2-19.5c0.3,17.7,7.1,32.8,21.8,44.8
			c20.1,16.4,41.4,15.9,60.1-0.7c7.5-6.7,12.9-15,17.1-23.9c3.4,9.3,9.4,17.5,18.2,24.7c20.1,16.4,41.4,15.9,60.1-0.7
			c7.3-6.6,12.7-14.6,16.8-23.3c0.2,0.8,0.3,1.7,0.5,2.5c1.6,8.2,4.2,16.4,10.1,22.9c2.6,2.8,5.8,5.6,9.4,7c7.5,3,16.1-0.9,21.3-9.4
			c9.1-15.4,13.3-32.7,17.8-49.8c0.2-1.2-1.6-4-2.8-4.2c-1.4-0.5-4.2,0.9-4.9,2.3c-1.6,4-2.6,8.2-4,12.4c-2.8,8.4-5.1,17.1-8.7,25.3
			c-1.9,4.4-5.1,8.4-8.4,11.9c-2.6,2.8-5.4,2.6-7.2-0.7c-2.3-4-4.7-8.4-5.4-12.9c-2.3-14-5.1-28.3-5.4-42.3
			c-0.2-26.2,1.2-52.4,1.9-78.6c0-0.5,0.5-0.9,0.9-2.3h0.2c2.6-0.5,5.6-1.2,8.7-1.9c3-0.7,6.3-1.2,9.4-2.1c4.2-1.2,4.4-4,2.3-8.2
			c-6.5,0-13.3,0-20.6,0c-0.5-3.7-0.7-6.5-0.9-9.4c-0.5-5.6-2.8-8.9-6.3-9.1c-3-0.2-6.3,3.5-7.2,8.7c-0.2,1.2,0,2.3-0.2,3.5
			c-0.7,2.8-1.4,5.6-2.1,8c-4.7,0.9-8.7,1.6-12.6,2.3c-3,0.5-4.9,2.1-4.7,5.4c0.2,3.3,2.3,4.4,5.4,4.4c3.7,0,7.5,0,11.2,0
			c-0.5,10.5-0.7,20.1-1.4,29.7c-1.6,22.5-1.6,44.9,1.2,67.1c-3.1,6.4-6,12.4-9.4,18.2c-2.8,4.9-6.3,9.8-10.5,13.6
			c-20.3,17.5-43.7,10.3-53.1-12.4c-2.6-6.1-3-12.9-4.4-19.4c2.8-1.4,4.9-2.6,7-3.5c19.2-9.8,30.4-25.7,34.4-46.8
			c2.8-15.7-10.3-27.8-25.5-23.6c-4,1.2-8,3.7-11.2,6.5c-7.7,7-12.9,15.9-16.6,25.5c-3.5,9.1-4.9,18.5-6.1,28.1
			c-0.6,5.1-0.7,9.9-0.3,14.6c-2.9,6.1-5.7,11.9-9,17.4c-2.8,4.9-6.3,9.8-10.5,13.6c-20.3,17.5-43.7,10.3-53.1-12.4
			c-2.6-6.1-3-12.9-4.4-19.4c2.8-1.4,4.9-2.6,7-3.5c19.2-9.8,30.4-25.7,34.4-46.8c2.8-15.7-10.3-27.8-25.5-23.6
			c-4,1.2-8,3.7-11.2,6.5c-7.7,7-12.9,15.9-16.6,25.5c-3,7.7-4.4,15.5-5.5,23.5c-2.4,3.5-4.6,7.2-7.1,10.6
			c-9.6,12.2-21,19.9-37.4,16.1c-2.6-4.7,0.5-8.7,1.4-12.6c3.7-14.7,6.1-29.7,4.2-44.9c-0.7-5.4-2.3-11-5.1-15.7
			c-8-13.6-24.3-14.7-34.1-2.6c-3.7,4.7-7,10.3-8.9,15.9c-8.2,24.8,4.4,51.7,22.9,62.7c2.1,1.4,4.2,2.6,7.2,4.2
			c-4.4,8.9-8.7,17.5-12.9,26c-1.4,2.8-3.3,5.6-5.1,8.2c-3.5,4.7-7.2,4.7-10.3-0.2c-1.9-2.8-3.5-6.1-4-9.4
			c-1.6-9.1-2.6-18.5-3.7-27.6c-1.4-10.8-2.6-21.5-4.2-32.3c-0.7-4.2-2.1-8.4-4-12.4c-1.6-3.5-4.4-6.3-8.9-5.8c-4.7,0.5-6.8,4.2-7,8
			c-0.7,9.6-5.1,17.8-8,26.4c-4,12.6-8.9,25-13.8,37.4c-1.9,4.4-4,9.1-10.1,12.6v-0.2c-1.6-3.7-3.7-6.8-4.2-10.1
			c-1.4-8.7-2.8-17.3-2.8-26c0-21.3,0.7-42.6,1.2-63.8c0-2.8,0-5.8-0.7-8.7c-0.7-3.3-3-5.4-6.5-5.8c-3.3-0.5-5.8,0.9-7.5,3.5
			C265.4,334.2,264.5,336.5,264.3,338.9z M550.3,380c1.2-15.7,4-30.2,15.7-41.4c2.3-2.1,4.9-3.5,8-2.3c3.3,1.2,3.3,4.4,3.3,7.5
			c0.5,14-13.1,32.7-27.1,36.5L550.3,380z M454.8,380c1.2-15.7,4-30.2,15.7-41.4c2.3-2.1,4.9-3.5,8-2.3c3.3,1.2,3.3,4.4,3.3,7.5
			c0.5,14-13.1,32.7-27.1,36.5L454.8,380z M377.4,396.9c-11.7-13.3-16.1-38.8-8.7-54.3c1.9-4,3.5-8.9,8.4-8.9c5.4,0,7.5,4.9,9.4,9.4
			c0.9,2.1,1.6,4.4,1.9,6.8c1.2,16.6-1.2,32.7-6.7,49.7C379.7,398.3,378.3,397.8,377.4,396.9z"/>
		<path class="st7" d="M826.7,533.2c-0.9-0.9-3.5-0.2-5.4,0c-0.7,0.2-1.4,1.2-2.1,1.9c-8.7,8.7-17.3,17.3-26,26
			c-0.9,0.9-2.1,1.6-3.5,2.8c-6.1-11.2-11.7-21.7-17.5-32.5l0.2-0.5c0.7-1.6,1.2-2.8,1.9-3.7c8.2-12.2,12.4-25.3,11.9-40
			c-0.2-5.8-2.1-10.8-5.4-15.2c-3.7-4.9-11-6.8-17.3-5.1c-8.9,2.3-13.8,8.7-16.8,16.4c-3.7,9.1-3.3,18.7-1.4,28.3
			c2.3,11.9,8.4,22.2,14.3,32.5c0.3,0.4,0.5,0.9,0.7,1.3c-1.9,5.5-3.7,11-5.9,16.3c-4,9.1-9.1,17.5-18,22.9
			c-7.5,4.4-14.7,3.3-19.9-3.5c-1.6-2.3-3-5.1-4-7.7c-3.3-8.4-4.9-17.3-5.1-26.4c-0.5-15-0.7-29.9-1.6-44.7
			c-0.5-6.3-1.6-12.9-4.2-18.7c-8-18.5-26.9-17.8-36.7-8.4c-7.2,7-12.4,15.4-16.6,24.6c-4.2,9.1-8,18.2-12.2,28.3
			c-0.2-1.9-0.5-3-0.7-4.2c-1.6-11-1.9-22.2-6.5-32.5c-2.3-4.9-4.9-10.1-8.4-14c-7.5-8.4-17.1-8.7-25.5-1.2c-3,2.6-5.6,5.8-8,9.1
			c-8.7,11.2-13.3,24.3-17.1,37.9c-2.3,8.9-4,18-6.3,28.8c-3-17.5-3-33.2-3-48.9c0-4.9,0.2-9.8,0-14.7c-0.2-4.9-2.6-8-6.1-8.7
			c-4.4-0.7-7.5,0.9-9.4,6.1c-1.6,4.4-2.8,9.1-3,13.8c-1,15.2-1,30.3,1.2,45.2c-1.2,4.5-2.3,9-3.6,13.5c-2.6,9.1-6.5,17.5-12.6,24.8
			c-5.4,6.3-12.4,8.9-19.4,6.1c-7.7-3-14-7.7-17.8-15.7c-6.1-12.4-7.5-25.7-7-39.1c0.5-11.7,2.6-23.1,4-34.6
			c0.7-6.3-0.9-11.2-5.4-12.9c-5.1-1.9-8.9,0.5-11.7,4.7c-0.2,0.2-0.5,0.5-1.2,0.9l-0.7-0.2c-3.3-2.8-5.8-5.6-8.9-7.7
			c-9.1-6.3-26.9-6.8-38.8,4c-16.1,14.5-24.8,32.7-27.4,54c-0.2,1.5-0.3,3-0.4,4.6c-2.3,4.8-4.7,9.4-7.3,13.9
			c-2.8,4.9-6.3,9.8-10.5,13.6c-20.3,17.5-43.7,10.3-53.1-12.4c-2.6-6.1-3-12.9-4.4-19.4c2.8-1.4,4.9-2.6,7-3.5
			c19.2-9.8,30.4-25.7,34.4-46.8c2.8-15.7-10.3-27.8-25.5-23.6c-4,1.2-8,3.7-11.2,6.5c-7.7,7-12.9,15.9-16.6,25.5
			c-2.4,6.2-3.8,12.6-4.8,19.1c-7.8-0.6-14.2-4.2-19.9-9.7c-5.6-5.4-10.5-11.2-14.5-18c-1.9-3.3-4-6.5-6.5-9.4
			c-6.1-6.3-12.4-6.1-18.2,0.5c-2.1,2.3-4,5.1-5.1,8c-8.2,19.6-14.3,39.8-16.6,60.8c-0.5,4.7-1.4,9.1-2.1,13.6
			c-2.1-8.4-3-16.8-3.3-25.3c-0.5-16.4,0.7-32.5,3-48.6c0.5-2.8,0.5-5.8,0.2-8.7c-0.5-3.7-3-5.8-6.8-4.9c-2.3,0.7-4.9,2.3-6.1,4.2
			c-1.9,3.5-3,7.5-4,11.5c-4.2,17.5-4.7,35.3-3.5,53.1c0,0.2,0,0.4,0.1,0.6c-2.9,3.5-6.2,6.5-10.1,9c-17.5,11-35.3,6.8-53.6,1.9
			c0.7-1.6,0.9-2.6,1.4-3.3c16.6-32,25.7-65.5,21.3-101.7c-1.4-11-3.7-21.7-10.1-31.3c-8-12.2-24.1-19.4-38.8-6.1
			c-5.1,4.7-10.1,10.1-13.3,15.9c-17.8,31.3-29.9,64.5-34.1,100.6c-0.2,1.4-1.2,2.8-1.6,4.2l0.2,0.7c-0.5,0-0.9,0-1.4,0
			c-0.2-5.8-0.5-11.7-0.9-17.5c-2.1-26-2.1-51.9,0-77.9c0.2-4,0.5-8.2,0.2-12.2c-0.2-5.1-2.6-8-6.1-8.2c-3.5-0.2-6.8,1.9-8.4,6.3
			c-0.9,2.6-1.9,5.4-2.1,8.2c-1.4,13.3-3,26.7-3.5,40c-0.5,13.3,0.7,26.7,1.2,40c0.7,16.8,3.5,33.4,7.7,49.8c1.9,7.5,4.9,14.7,8,22
			c0.9,1.9,4,4,5.8,4c3-0.2,4.2-3.3,4.4-6.5c0.5-8.4,1.4-16.8,1.6-25.3c0.7-19.4,4.2-38.4,9.1-57.3c5.6-22,13.6-43,26.2-62
			c3.5-5.1,7.5-10.5,12.4-14.3c8.7-6.8,17.1-4,21.7,6.1c1.2,2.3,2.3,4.9,2.8,7.5c1.4,10.1,3.5,20.1,3.7,30.2
			c0.5,27.4-5.6,53.6-17.5,78.3c-0.9,2.1-2.3,4-3.5,6.1c-5.4-1.6-10.3-3.5-15.4-4.4c-8.9-1.9-17.8-1.9-26.2,3
			c-7.5,4.4-11.9,13.3-10.8,22.2c1.2,8.4,7.5,15,16.1,17.1c7.5,1.9,14.3,0.2,20.8-3.3c8.9-4.9,15.9-11.9,22-19.2
			c14.7,1.6,28.3,5.6,42.8,3.3c12.4-1.9,22.2-6.7,29.5-14.8c1.8,8.6,5,16.9,10.1,24.4c1.9,2.8,4.2,5.4,6.8,7.5
			c2.8,2.3,6.3,1.6,8.2-1.4c1.2-1.6,1.9-3.7,2.1-5.6c1.2-11.9,2.6-23.9,3.3-35.8c0.9-17.1,5.4-33.2,10.8-49.1c1.4-4.4,4-8.4,9.4-11
			c2.3,3,4.9,5.8,6.8,8.9c4.9,8,10.8,15,17.8,21.3c7.5,6.8,16.3,9.1,25.8,9.1c-0.1,0.7-0.2,1.4-0.3,2.1
			c-2.6,22.2,3.7,40.9,21.3,55.2c20.1,16.4,41.4,15.9,60.1-0.7c5.7-5.1,10.2-11.2,13.9-17.7c0.4,1.5,0.9,3,1.5,4.4
			c6.3,15.7,25.3,29,45.4,12.6c4-3.3,7.5-7.5,10.5-11.7c4.2-5.6,8-11.7,11.2-16.8c4,8.9,7.7,18,12.2,26.7
			c5.1,10.3,14,16.8,24.8,19.4c14.7,3.5,26.9,2.3,36.5-12.6c4.5-7.1,8.5-14.9,11.5-22.9c3,9.5,7.2,18.7,11.2,27.8
			c1.4,3.3,4.7,5.1,8.7,4c2.8-0.7,4.7-4.7,4.4-8.7c-0.2-4-1.2-8.2-0.7-12.2c1.4-14.3,2.6-28.5,4.9-42.6c2.1-12.4,6.3-24.3,13.8-34.6
			c4-5.4,8-11,15.2-12.4c6.5,4.9,8.2,12.2,9.8,19.2c4.7,19.9,4.9,40.5,6.8,60.8c0.7,8.2,1.2,16.4,2.1,24.6c0.2,2.5,1.5,4.7,2.7,7.8
			c6.9-4.6,7.6-11,8.3-17.6c0.5-6.1,0.7-12.2,1.9-18c3.5-18.5,8.4-36.7,17.1-53.8c4.2-8.4,8.9-16.4,16.6-22c6.3-4.7,11.5-3,13.6,4.4
			c1.4,5.4,1.9,11,2.3,16.4c1.2,16.6,1.9,33.2,3.5,49.8c1.2,11.5,5.6,22,12.6,31.1c6.5,8.4,15,13.3,25.7,11.5
			c9.1-1.6,16.6-6.5,22.4-14c7.6-9.4,11.4-20.4,14.7-31.6c3.5,6.1,7,12.2,10.5,18.2c2.1,3.5,1.9,6.3-0.7,9.6
			c-5.8,7.7-9.8,16.6-12.6,25.7c-2.3,7.7-3.5,15.2,0.7,22.7c4,7,10.5,9.6,17.5,5.8c3-1.6,6.1-3.7,8.2-6.3c5.8-8,8.7-16.8,9.4-26.7
			c0.7-10.3-1.9-20.1-4.7-30.4c6.3-6.5,12.4-13.1,18.7-19.4c4-4,8.2-7.5,12.2-11.2c1.2-1.2,2.8-2.6,3-4
			C828.2,537,827.9,534.2,826.7,533.2z M318.6,525.5c1.2-15.7,4-30.2,15.7-41.4c2.3-2.1,4.9-3.5,8-2.3c3.3,1.2,3.3,4.4,3.3,7.5
			c0.5,14-13.1,32.7-27.1,36.5L318.6,525.5z M87.8,582.1c-7.2,0-12.4-4.4-12.4-10.8c0-5.6,4.9-10.5,11.5-10.5c8.4,0,16.3,2.5,25.1,6
			C104.5,574.5,98.5,581.9,87.8,582.1z M464.1,509.8c-1.6,12.6-1.4,25.5-8,37.2c-4.7,8.4-9.6,16.6-16.6,23.4c-0.9,0.9-1.9,2.1-3,3
			c-8.4,6.1-18.9,5.1-23.4-6.3c-1.9-5.1-2.3-10.8-3-13.6l0.2-0.2c0.7-20.3,6.3-36.2,17.5-50c0.9-1.2,1.9-2.3,3-3.3
			c10.5-10.1,26.7-6.8,32.7,6.5C464.1,507.5,464.3,508.7,464.1,509.8z M768,522.1c-4.7-9.6-8.1-19.6-7.9-30.6
			c0-4.7,1.4-8.7,4.4-11.9c3.5-3.7,7.5-3.5,10.3,0.7c1.4,2.1,2.8,4.7,3,7c1.2,12.2-1.4,23.6-8.2,33.9
			C769.5,521.7,768.8,521.8,768,522.1z M780,625.8c-1.4,1.4-3.7,2.8-5.6,2.8c-3.3,0-3.7-3.3-4.4-5.6c-0.5-1.6-0.7-3.5-0.5-5.1
			c2.1-10.3,6.5-19.6,12.9-29v0.2C789.1,601.7,787.9,617.6,780,625.8z"/>
	</g>
</g>
</svg>
