<?xml version="1.0" encoding="UTF-8"?>
<svg id="OG" xmlns="http://www.w3.org/2000/svg" viewBox="70 25 470 190">
  <defs>
    <style>
      .cls-1 {
        stroke: #f5f5f5;
      }

      .cls-1, .cls-2, .cls-3, .cls-4, .cls-5, .cls-6, .cls-7, .cls-8 {
        stroke-miterlimit: 10;
      }

      .cls-1, .cls-4, .cls-7 {
        fill: #f5f5f5;
      }

      .cls-2 {
        fill: #dedfe0;
      }

      .cls-2, .cls-3, .cls-6, .cls-7 {
        stroke: #dedfe0;
      }

      .cls-3, .cls-5, .cls-6 {
        stroke-linecap: round;
      }

      .cls-3, .cls-6 {
        fill: none;
      }

      .cls-4 {
        stroke: #eeefef;
      }

      .cls-5, .cls-8 {
        fill: #58595b;
        stroke: #58595b;
      }

      .cls-6 {
        stroke-width: .75px;
      }
    </style>
  </defs>
  <g id="Cloud_Layer_1" data-name="Cloud Layer 1">
    <path class="cls-7" d="M254.11,183.22c13.12.1,40.88.23,74.44-.44,44.37-.89,104.39-3.28,177.33-9.56-.02-6.99-.08-15.13-.22-24.22-.35-21.77-.81-25.61-4-29.56-5.42-6.71-16.22-10.65-24.89-7.78-2.25.75-3.97,1.82-5.11,2.67.1-2.38.06-9.14-4.67-14.44-1.08-1.22-2.24-2.16-3.33-2.89.07-.65.11-1.57,0-2.67-.92-8.8-10.81-14.04-12-14.67-10.15-5.37-23.37-2.68-32.22,3.78-8.61,6.28-11.65,15.09-12.67,18.67-2-.99-7.39-3.35-14.44-2.44-6.86.88-11.4,4.33-13.11,5.78-1.03-1.65-5.83-8.94-15.56-11.56-9.17-2.47-16.58.87-18.44,1.78-.92-1.03-2.48-2.43-4.67-2.89-1.25-.26-4.46-.59-12.22,5.78-3.32,2.73-7.09,5.82-10.89,11.33-4.79,6.94-6.96,13.86-8,18.89-.44-.36-1.72-1.29-3.56-1.33-2.91-.06-4.69,2.18-4.89,2.44-.48-1.34-2.98-7.86-10-11.11-9.4-4.35-18.28,1.16-18.89,1.56-1.17-5.35-5.19-9.64-10.44-11.11-5.12-1.44-10.66,0-14.44,3.78-.25-.34-4.61-6.11-11.56-5.56-5.64.45-10.52,4.87-11.78,10.89-1.56-2.23-7.75-10.55-19.33-13.33-8.53-2.05-15.56-.04-18.5.99-.65-.32-3.23-1.49-6.17-.55-3.07.98-5.32,3.85-5.78,7.33-1.74-1.51-8.25-6.8-17.11-6.22-10.37.68-19.72,9.14-22.67,21.11-3.65-.59-10.27-1.05-16.89,2.22-2.77,1.37-5.99,3.02-7.33,6.67-1.18,3.21-.27,6.25.22,7.56-6.55,12.55-3.14,27.72,7.33,35.56,8.91,6.67,21.57,6.99,31.56.67,29.06,1.37,64.47,2.57,104.89,2.89Z"/>
  </g>
  <g id="Lines_CL1" data-name="Lines CL1">
    <g>
      <path class="cls-3" d="M157.22,113c2.5.41,6.97,1.48,11.56,4.67,3.87,2.68,6.24,5.77,7.56,7.78"/>
      <path class="cls-3" d="M157.31,117.11c1.17-.06,3.76-.03,6.58,1.42,2.82,1.44,4.36,3.52,5,4.5"/>
      <path class="cls-3" d="M172.89,128.86c1.6-1.82,4.5-4.63,8.92-6.67,6.28-2.89,12.02-2.56,14.58-2.25"/>
      <path class="cls-3" d="M183.06,112.36c2.86-1.02,6.91-2.02,11.75-1.83,12.78.5,21.16,8.92,23.33,11.25"/>
      <path class="cls-3" d="M193.06,114.95c1.94-.08,4.54.01,7.5.75,4.51,1.12,7.77,3.22,9.67,4.67"/>
      <path class="cls-3" d="M246.02,111.63c.8.83,1.76,2.04,2.47,3.69.23.54.41,1.06.54,1.54"/>
      <path class="cls-3" d="M253.97,112.45c1.11-.29,4.35-.97,8,.5,2.98,1.2,4.7,3.22,5.42,4.17"/>
      <path class="cls-3" d="M256.22,115.36c1.14,0,2.87.13,4.83.83,2.27.81,3.85,2.02,4.75,2.83"/>
      <path class="cls-3" d="M327.35,106.95c-2.67,1.78-6.61,4.87-10.17,9.75-3.65,5-5.39,9.81-6.26,12.93"/>
      <path class="cls-3" d="M312.88,132.41c1.16-3.16,3.09-7.39,6.35-11.8,2.79-3.77,5.71-6.54,8.09-8.48"/>
      <path class="cls-3" d="M355.81,96.95c1.66-.06,4.77.05,8.25,1.58,3.36,1.48,5.5,3.6,6.58,4.83"/>
      <path class="cls-3" d="M359.72,100.86c1.97.26,5.72,1.03,9.42,3.75,2.24,1.65,3.73,3.47,4.67,4.83"/>
      <path class="cls-3" d="M413.67,100.56c.9-2.24,4.13-9.43,12.11-13.67,4.76-2.53,9.24-2.96,11.78-3"/>
      <path class="cls-3" d="M418.44,99.78c1.42-1.66,3.49-3.7,6.33-5.56,4.46-2.91,8.75-3.99,11.44-4.44"/>
      <path class="cls-3" d="M464.61,123c.52-1.19,1.28-2.62,2.39-4.11,1.61-2.15,3.35-3.62,4.67-4.56"/>
    </g>
  </g>
  <g id="Word">
    <g>
      <path class="cls-5" d="M135.22,89.89c-.15.56-.55,2.06.22,2.89.73.78,2.13.57,2.89.44,2.71-.45,4.71-2.09,6-3.33,1.93-1.85,5.86-5.63,6.89-12,.39-2.41.79-4.89-.44-7.33-2.18-4.32-7.85-5.35-10.22-5.78-14.66-2.66-28.2,8.58-31.78,11.56-4.15,3.44-10.35,8.73-13.33,17.78-1.16,3.53-2.86,9.57-.44,15.33,3.26,7.79,12.53,11.13,29.75,17.31,0,0,13.52,4.86,22.03,12.24,1.08.93,2.93,2.65,3.56,5.33.71,3.03-.52,5.65-2.67,10.22-1.96,4.18-4.09,6.83-4.89,7.78-1.54,1.84-3.04,3.23-4.22,4.22,1.03-.25,3.08-.59,5.56,0,2.59.62,4.31,1.96,5.11,2.67.56-1.27,1.35-3.1,2.22-5.33,1.91-4.85,4.26-10.99,4.44-14.44.61-11.19-20.32-21.28-22.56-22.33-9.69-4.56-27.07-9.61-31.83-14.78-2.28-2.47-2.67-5.17-2.67-5.17-.26-1.76.11-3.36.67-4.78,3.13-7.96,11.94-15.72,11.94-15.72,15.5-13.65,20.64-15.7,23.56-16.67,3.03-1,8.96-2.89,11.44-.22,1.52,1.63,1.12,4.29,1.06,4.72-1.02,6.7-10.71,9.46-12.28,15.39Z"/>
      <path class="cls-5" d="M127.28,169.56c-.31.36-.63.75-.94,1.17-.32.42-.62.83-.89,1.22-.72-.56-1.75-1.46-2.72-2.78-.81-1.1-2.78-3.77-2.44-6.72.25-2.19,1.66-3.69,2.44-4.5,8.91-9.23,16.33-14.33,16.33-14.33,2.29-1.58,7.88-5.39,15.06-9.89,10.04-6.29,8.63-4.8,10.61-6.44,2.69-2.24,5.21-4.93,7.22-4.17,1.08.41,1.48,1.61,1.5,1.67.62,1.96-1.45,3.77-3.11,6.22-5.03,7.43-3.31,16.46-3.11,17.44.27,1.32.63,2.37.89,3.06-.95-.02-3.34-.05-3.34-.05,0,0-.1,0-.1,0-.08,0-1.33-3.65-.89-9.72.22-2.98.9-7.29,3.06-12.44-6.05,3.34-10.72,6.43-13.89,8.67-1.59,1.12-1.42,1.05-9,6.72-7.15,5.35-8.47,6.29-11,8.39-9.33,7.75-9.65,10.13-9.5,11.44.25,2.26,2.14,3.94,3.83,5.06Z"/>
      <path class="cls-8" d="M174.22,152.89c.93.33,1.85.67,2.78,1,2.15-2.12,4.75-5.28,6.33-9.67,1.31-3.62,1.59-7.15,2.11-7.11.44.03.08,2.62,1,5.89,1.58,5.58,5.75,9,8.78,10.56,1.37.71,2.37,1.15,3.67,1,3.21-.37,5.1-4.15,6.34-6.64.56-1.12,2.36-4.92,2.77-11.59.16-2.49.72-11.46-1.89-12.22-1.46-.43-3.55,1.84-4.33,3.78-.84,2.08-.87,5.2,1.11,7,.91.82,1.94,1.11,2.56,1.22.11-.74.22-1.48.33-2.22-.24-.02-1.88-.17-2.67-1.44-1.14-1.83.34-4.58,1.11-4.56.48.02.82,1.1,1.11,2.22.81,3.13.72,6.44,0,10.56-.94,5.34-2.08,7.04-2.44,7.56-.92,1.3-1.9,2.7-3.56,3.11-3.97,1-8.11-4.59-8.67-5.33-2.04-2.75-2.66-5.4-3.44-8.89-1.55-6.87-1.06-11.86-1.56-11.89-.34-.02-.67,2.29-1.67,7.89-.86,4.85-1.26,7.28-1.56,8.22-.69,2.22-2.55,6.82-8.22,11.56Z"/>
      <path class="cls-8" d="M208.09,134.77c2.69.89,4.82.66,5.91.45,2.61-.49,4.21-1.77,6.89-3.89,1.28-1.01,2.65-2.29,3.67-4.22.38-.71.97-1.84.67-2.11-.46-.41-3.21,1.85-4.67,3.56-4.59,5.38-5.29,15.8-1.33,18.22,3.63,2.22,10.48-2.72,14.89-5.89,3.7-2.67,6.39-5.47,8.22-7.67l1.11,2.22c-.71.87-1.71,2.03-3,3.33-.89.89-3.31,3.28-6.44,5.44-5.27,3.65-10.66,7.38-14.78,5.44-2.75-1.29-3.79-4.49-4.3-6.13-2.77-8.83,2.91-20.7,9.63-21.76.47-.07,2.63-.42,3.38.66,2.06,2.95-7.59,14.98-15.27,15.23-1.01.03-4.02.13-4.67-1.33-.24-.54-.08-1.13.09-1.56Z"/>
      <path class="cls-8" d="M243.17,131.49c2.91-1.18,5-2.61,6.35-3.67,1.39-1.1,2.69-2.38,3.67-4.22.38-.71.97-1.84.67-2.11-.46-.41-3.21,1.85-4.67,3.56-4.59,5.38-5.29,15.8-1.33,18.22,3.63,2.22,10.48-2.72,14.89-5.89,3.7-2.67,6.39-5.47,8.22-7.67l1.11,2.22c-.71.87-1.71,2.03-3,3.33-.89.89-3.31,3.28-6.44,5.44-5.27,3.65-10.66,7.38-14.78,5.44-2.75-1.29-3.79-4.49-4.3-6.13-2.77-8.83,2.91-20.7,9.63-21.76.3-.05,2.52-.45,3.38.66,1.62,2.11-3.03,7.89-3.45,8.42-5.95,5.36-9.36,7.67-10.25,6.94-.39-.33-.29-1.26.31-2.78Z"/>
      <path class="cls-5" d="M271.33,131.45c-.57-3.69.78-4.45,4.11-14.89.94-2.93,3.21-10.31,4.89-19.22.54-2.84.89-5.19,1.11-6.78-2.96.78-7.06,1.81-12,2.89-14.57,3.18-16.42,2.41-16.92,1.49-.59-1.08.21-3.37,1.59-4.16.6-.34,1.19-.33,1.33-.33,1.95,0,11.87-1.81,27.89-5,.06-.65.16-1.61.33-2.78.58-3.97,1.32-5.94,1.78-7,.75-1.74,1.26-2.87,2.22-3,.87-.12,1.82.61,2.22,1.44.56,1.16.03,2.45-.22,3.11-.65,1.73-1.34,4.3-1.56,8.11,2.26-.28,5.61-.66,9.67-1,7-.59,26.51-2.22,27.11.67.08.4-.16,1.05-1.78,2.11-.83.02-2.06.06-3.56.11-2.79.09-11.25.36-14.78.56-4.06.22-9.94.78-17.48,2.32-3.29,11.79-5.46,19.44-6.85,24.23-.74,2.55-1.37,5.12-2.11,7.67-1.46,5.03-1.85,5.86-1.89,7.78-.04,1.82-.12,5.82,2.78,8.56,1.74,1.64,4.86,3.11,7.56,2.11,2.13-.79,3.08-2.78,4.78-6.33,2.02-4.24,2.46-7.39,2.78-7.33.31.06.31,3-.56,6.11-.72,2.59-1.53,5.55-4.22,7.67-2.86,2.25-6.98,2.9-10.44,1.67-6.34-2.26-7.63-9.82-7.78-10.78Z"/>
      <path class="cls-5" d="M333.89,105.67c-.6-.02-1.2-3.76-1.22-7.44-.08-11.05,4.99-23.32,14.89-31.44,3.67-3.01,8.62-7.07,15.56-6.89.8.02,6.11.23,10.56,3.67,10.95,8.47,7.41,29.35,5.89,38.33-.52,3.05-2.63,14.41-10.22,26.56-4.3,6.88-8.73,13.73-16,14.56-.57.06-6.62.66-10.11-3.11-1.32-1.43-2.38-3.6-2.11-18.33.08-4.21.11-6.32.33-9.67,0,0,1.78-27.25,8.18-31.62,2.15-1.47,4.27-1.27,4.27-1.27.59.05,1.27.12,1.67.56,1.33,1.46-1.48,6.06-2.11,7.11-6.38,10.72-8.76,27.86-9.22,35.44-.31,5.11-.82,13.57,3.11,15.44,2.58,1.23,6.08-.81,8.22-2.22,4.68-3.08,7.62-7.34,10.89-13.44,3.14-5.86,7.05-13.33,8.67-24.22.48-3.26,1.39-11.05-.67-20.33-1.21-5.47-2.5-8.83-5.67-10.67-6-3.48-14.58,1.83-17,3.33-8.13,5.04-11.62,12.82-13.11,16.11-4.63,10.23-3.84,19.58-4.78,19.56Z"/>
      <path class="cls-5" d="M342.66,123.45c.16-.72.34-1.27.39-1.42,1.07-3,7.06-6.89,14.5-7.42,2.23-.16,6.53-.41,9.5,2.3.34.31,1.44,1.31,1.18,1.89-.45,1.01-4.3-.8-9.36-.55-1.1.05-7.45.37-11.86,4.64-2.72,2.64-3.58,5.7-4.31,5.43-.68-.25-.43-3.11-.05-4.88Z"/>
      <path class="cls-8" d="M388.89,116.99c2.69.89,4.82.66,5.91.45,2.61-.49,4.21-1.77,6.89-3.89,1.28-1.01,2.65-2.29,3.67-4.22.38-.71.97-1.84.67-2.11-.46-.41-3.21,1.85-4.67,3.56-4.59,5.38-5.29,15.8-1.33,18.22,2.33,1.42,6.09-.44,8.11-1.42,4.46-2.17,6.51-5.46,7.36-4.9.59.39.15,2.37-.69,3.77-.73,1.21-1.88,2.2-5.19,3.51-4.9,1.93-7.36,2.9-9.58,1.94-2.86-1.24-3.84-4.67-4.3-6.13-2.77-8.83,2.91-20.7,9.63-21.76.47-.07,2.63-.42,3.38.66,2.06,2.95-7.59,14.98-15.27,15.23-1.01.03-4.02.13-4.67-1.33-.24-.54-.08-1.13.09-1.56Z"/>
      <path class="cls-8" d="M376.6,129.36c-.85.96-1.25,1.05-1.46.96-.89-.39.14-4.83.75-7.46.39-1.68.75-2.9.79-3.04,1.9-6.41,3.12-10.5,5.88-11.25,1.28-.35,2.81.05,3.08.75.28.71-.8,1.56-2.08,3.29-1.22,1.65-1.96,3.21-2.42,4.33,6.51-5.92,8.74-7,9.33-6.5.4.33.36,1.59.29,2.83-.09,1.6-.29,1.66-.17,2.17.44,1.87,3.42,2.06,3.38,2.88-.05.85-3.37,2.03-4.67.83-1.44-1.33.61-4.62-.41-5.33-1.19-.83-5.51,2.54-8.38,6.58-2.36,3.33-3.41,6.65-3.92,8.96Z"/>
      <path class="cls-8" d="M435.89,116.22c-.36-.27,1.06-1.92.5-2.94-.62-1.14-3.26-.81-4.39-.67-4.23.53-7.19,2.54-7.78,2.94-.69.48-3.69,2.65-5.72,6.67-.96,1.89-1.9,3.84-1.17,5.83.08.23.78,1.91,2.39,2.5,2.94,1.08,6.92-2.19,9.39-4.22,1.08-.89,5.13-4.37,7.28-4.39.46,0,.66.12.78.22.64.58-.18,1.84,0,3.33.14,1.19.92,2.42,1.89,3,2.04,1.21,5.3-.27,7.06-2.11,1.6-1.69,1.87-3.62,2.39-3.5.37.08.48,1.46.28,2.61-.62,3.57-4.61,7.4-8.72,6.94-.48-.05-2.59-.29-3.83-1.89-1.67-2.15-.29-4.86-1.28-5.39-1.22-.66-3.47,3.44-8.83,6.56-2.18,1.27-5.76,3.28-9.61,2.22-.96-.26-2.68-.74-3.72-2.22-2.96-4.23,2.75-12.21,3.83-13.72,2.92-4.09,6.2-6.1,7.5-6.83,1.94-1.09,4.94-2.73,8.72-2.33,1.28.13,4.01.42,5,2.39.54,1.07.5,2.49-.11,3.56-.55.96-1.57,1.64-1.83,1.44Z"/>
      <path class="cls-8" d="M457.5,103.56c-2.99-.53-7.19,8.96-8.72,15.94-.45,2.06-.89,4.91.17,8.06.45,1.34,1.31,3.87,3.06,4.33,2.84.75,6.45-4.42,8.06-6.72,4.03-5.77,8.22-15.08,11.67-17.94.7-.58,1.09-.67,1.33-.56.74.36.13,2.81-.33,5.17,0,0-1.06,5.36-1.06,14.11,0,4.05.62,5.03,1.33,5.33,2.08.88,6.23-4.26,8.64-7.24,4.73-5.86,6.55-10.31,7.86-9.91.64.2.48,1.36,1.45,5.82.72,3.31,1.08,5,2,6.06,1.69,1.95,4.43,2.75,6.61,2.33.43-.08,2.47-.47,2.94-1.83.16-.46.17-1.12-.11-1.28-.37-.21-.99.58-1.78,1.06-1.8,1.08-4.71.66-6.22-.72-1.02-.93-1.03-1.96-1.56-5-.98-5.62-1.58-9.06-3.17-9.5-1.06-.29-2.31.74-3.94,2.56-2.6,2.89-4.19,5.46-4.67,6.22-3.27,5.27-4.91,7.9-5.67,7.67-.86-.26-.14-3.78.11-11.56.3-9.2-.47-11.61-1.89-12.22-.28-.12-.91-.33-2.22.11-4.19,1.41-5.58,6.14-8.94,12.56-2.56,4.88-7.06,12.25-8.44,11.72-.83-.32-.35-3.45-.11-5,1.04-6.74,4.22-12.17,4.22-12.17.86-1.46,1.8-2.81,1.5-4.5-.2-1.12-.99-2.69-2.11-2.89Z"/>
      <path class="cls-8" d="M511.94,102.28c1.66-1.1,2.51-1.51,2.78-2.56.05-.2.25-1-.11-1.33-1.03-.94-6.63,1.84-9.27,6.63-.58,1.06-1.88,3.52-1.62,6.65.54,6.63,8.15,8.89,7.17,12.28-.63,2.16-4.44,3.67-5.67,2.72-.6-.46-.55-1.44-.55-1.52.12-1.88,2.54-2.94,8.77-6.03,6.47-3.21,4.75-2.5,8.22-4.17,3.37-1.62,5.38-2.47,5.28-2.78-.1-.31-2.26.1-3.67.44-4,.98-6.3,2.48-10.56,4.94-7.56,4.38-10.09,5.31-10.33,7.67-.02.23-.17,1.67.72,2.78.95,1.17,2.52,1.28,3.33,1.33,3.04.2,7.02-1.36,7.83-4.33.26-.95.11-1.74,0-2.33-.45-2.32-1.88-3.1-4.94-6.78-2.15-2.58-2.49-3.44-2.67-4.06-.15-.51-.74-2.59.17-4.61.01-.03.03-.06.03-.08.64-1.35,1.83-2.72,5.08-4.87Z"/>
    </g>
  </g>
  <g id="Cloud_Layer_2" data-name="Cloud Layer 2">
    <g>
      <path class="cls-7" d="M274.56,191.07c-30.64,4.79-64.15,8.73-100.22,11.11-34.66,2.28-67.15,2.82-97.11,2.22,1.7-2.37,3.41-4.74,5.11-7.11-3.96-1.76-6.32-5.94-5.78-10.22.53-4.24,3.78-7.67,8-8.44-2.03-2.1-2.73-5.13-1.78-7.78,1.11-3.1,4.3-5.14,7.78-4.89.95-9.36,7.21-17.35,16-20.44,9.14-3.22,19.43-.59,26,6.67,2.05-.99,8.79-3.91,16.89-1.78,4.43,1.16,7.56,3.39,9.33,4.89,1.65-.96,6.82-3.68,13.78-2.89,7.05.8,11.51,4.7,12.89,6,14.25-5.8,28.24-3.34,34.22,4.89,1.23,1.68,3.33,5.28,3.33,11.33.36-.47,2.92-3.68,7.11-3.78,3.91-.09,7.62,2.58,9.11,6.67,1.48.96,2.96,1.93,4.44,2.89.6-.33,3.4-1.8,6.89-.89,4,1.04,5.74,4.37,6,4.89,2.5.29,5.74.9,9.33,2.22,3.66,1.35,6.56,3.02,8.67,4.44Z"/>
      <path class="cls-1" d="M301.22,150.78c1.3-1.12,3.1-2.58,5.33-4.17,1.15-.82,5.47-3.84,10.34-6.08,3.45-1.58,9.96-4.57,17.63-4.38,10.94.28,18.8,6.88,21.7,9.62-.72-2.04-.73-3.71-.5-5,1.46-8.12,14.85-14.26,25.21-11.5,2.97.79,5.18,2.17,6.54,3.18,1.26-.6,3.11-1.41,5.42-2.17,3.86-1.27,8.6-2.83,13.25-2.2,7.11.97,11.72,6.77,13.33,9.03,3.08,7.11,6.16,14.22,9.25,21.33-42.94,3.94-85.89,7.89-128.83,11.83-23.33-.89-46.67-1.78-70-2.67-.07-3.07.19-8.16,2.5-13.83,1.33-3.27,3.13-7.7,7.55-11.22,6.68-5.32,16.56-6.35,23.8-2.66,1.8.92,3.14,1.98,4.03,2.77,1.07-.41,2.63-.97,4.53-1.54,4.54-1.34,9.44-2.21,14.74-2.19,5.33.02,6.77.91,7.51,1.49.95.75,1.39,1.53,2.99,4.23,1.6,2.69,2.89,4.82,3.68,6.11Z"/>
      <path class="cls-7" d="M308.78,189.89c.94-.79,2.51-1.96,4.67-2.89,3.46-1.48,5.08-.9,8.89-2.22,2.57-.89,1.97-1.2,6.44-3.33,3.7-1.76,3.91-1.46,8.67-3.56,4.23-1.87,4.69-2.38,7.11-3.11.62-.19,2.25-.66,4.47-.93.56-.07,1.31-.14,2.2-.18-.32-.45-.7-1.09-1-1.91-.87-2.4-.87-5.95,1.45-8.76,2.41-2.92,6.09-3.53,8.65-3.03.77.15,1.38.39,1.79.58.06-.42.17-1.01.39-1.69,0,0,.68-2.18,2.17-3.97,2.49-3,9.43-5.64,14.33-2.56.85.54,2.08,1.52,3.11,3.33.19-.47.47-1.14.86-1.9.64-1.27,6.89-13.26,19.81-14.98,1.43-.19,12.29-1.48,18.33,5.56,1.3,1.51,2.06,3.05,2.52,4.19.51-.92,1.27-2.14,2.37-3.41.83-.97,2.92-3.19,6.11-4.78,1.78-.89,7.26-3.6,13.22-1.33,4.3,1.64,6.59,5,7.44,6.44.87-1.64,4.32-7.62,11.78-10.44,5.65-2.14,10.62-1.34,12.67-.89,1.77-4.74,6.12-8.04,11.11-8.44,4.77-.39,9.4,1.93,12,6,8.14-6.65,18.77-8.04,26.22-3.56,11.11,6.69,9.08,22.75,8.67,26-1.35,10.71-7.69,17.7-10.22,20.22,1.7.42,4,1.2,6.44,2.67,3.31,1.99,5.44,4.38,6.67,6-37.22,3.3-76.62,5.72-118,6.89-38.87,1.1-76.04,1-111.33,0Z"/>
    </g>
  </g>
  <g id="Lines_CL2" data-name="Lines CL2">
    <path class="cls-3" d="M239.94,142.56c1.55-1.24,7.01-5.3,14.75-5.03,1.73.06,7.44.34,12.41,4.45,1.43,1.18,2.44,2.38,3.08,3.25"/>
    <path class="cls-3" d="M267.57,142.36c5.04-2.19,9.39-3.07,12.31-3.47,5.46-.74,9.66-1.3,13.78,1,4.03,2.25,5.9,6.07,6.67,8"/>
    <path class="cls-3" d="M308.94,128.41c1.9,1.27,3.97,3.17,4.5,5.83.68,3.41-1.5,6.4-.41,7.31.91.76,3.23-.65,3.87-1.02,7.67-4.51,19.13-4.56,24.3-3.67,3.04.52,8.89,2.22,15.17,9.22"/>
    <path class="cls-3" d="M354.79,144.5c.3-2.27,1.37-7.76,5.93-11.89,8.45-7.64,20.78-3.26,21.5-2.99,2.33.87,4.1,1.99,5.25,2.83,1.27-.6,3.12-1.41,5.42-2.17,4.01-1.32,8.76-2.88,13.5-2.17,7.02,1.06,11.5,6.75,13.08,9"/>
    <path class="cls-3" d="M266.44,160.89c1.72-1.09,6.04-3.46,11.56-2.89,2.27.24,5.98.62,8,3.33,1.41,1.89,1.25,3.91,2.33,4.11,1.23.22,1.71-2.3,4.22-3.78,2.49-1.46,6.39-1.57,9,.56,1.8,1.47,2.36,3.5,2.56,4.44"/>
    <path class="cls-3" d="M439.01,161.14c.91-2.09,2.5-5.14,5.22-8.22,1.89-2.14,7.5-7.88,16.56-9.67,3.87-.76,9.07-1.79,13.33,1.33,2.49,1.82,3.66,4.33,4.22,5.89"/>
    <path class="cls-3" d="M153.72,172.55c3.93-2.1,7.37-2.69,9.44-2.89,1.4-.13,12.92-1.05,18.11,6.33,1,1.42,1.51,2.78,1.78,3.67"/>
    <path class="cls-3" d="M121.44,177.45c.32-.97.91-2.4,2-3.89,2.4-3.27,5.59-4.58,7.22-5.22.58-.23,3.19-1.22,7-1.33,2.53-.07,8.15-.23,13.44,3.56,5.43,3.88,7.1,9.46,7.56,11.22"/>
    <path class="cls-6" d="M155.28,174.12c1.89-.36,4.4-.62,7.33-.33,5.06.49,8.86,2.38,11,3.67"/>
    <path class="cls-6" d="M156.83,176.44c1.81-.15,4.14-.15,6.78.33,4.59.84,7.99,2.75,10,4.11"/>
    <path class="cls-3" d="M456.53,144.45c1.26-1.64,3.61-4.23,7.36-6.12,2.09-1.05,4.03-1.6,5.56-1.89"/>
    <path class="cls-3" d="M460.79,143.25c1.11-1.07,3.12-2.74,6.1-3.81,2.17-.78,4.1-.97,5.44-1"/>
    <path class="cls-3" d="M357.82,162.7c.96-.14,2.73-.25,4.63.58.63.28,1.16.6,1.58.92,0-.92.1-2.55.92-4.33,1.1-2.4,2.86-3.72,3.67-4.25"/>
  </g>
  <g id="M_S" data-name="M &amp;amp; S">
    <g>
      <path class="cls-1" d="M232.56,49.61c-.22,1.6-3.95,1.64-7.67,3.17-6.54,2.69-11.62,9.44-13.33,16.5-1.54,6.35-.77,14.61,3.91,20.13,3.37,3.97,7.91,5.52,7.42,7.2-.4,1.38-3.89,1.85-6.33,1.5-8.86-1.27-18.31-15.41-16.5-28.67,2.06-15.03,18.25-26.46,27.14-24.04,2.4.65,5.57,2.67,5.36,4.21Z"/>
      <path class="cls-4" d="M252.05,38.23l-4.11-2.2c-.24-.13-.55-.09-.75.1l-3.36,3.23c-.16.15-.42.01-.38-.2l.82-4.59c.05-.27-.08-.55-.33-.68l-4.11-2.2c-.19-.1-.14-.39.08-.42l4.62-.64c.27-.04.49-.25.54-.52l.82-4.59c.04-.22.33-.26.43-.06l2.03,4.19c.12.25.39.39.66.35l4.62-.64c.22-.03.35.24.19.39l-3.36,3.23c-.2.19-.25.49-.13.74l2.03,4.19c.1.2-.12.4-.31.3Z"/>
      <path class="cls-4" d="M302.31,56.35l-3.69-2.27c-.3-.18-.67-.15-.94.07l-3.3,2.81c-.19.17-.49-.01-.43-.26l1.02-4.21c.08-.34-.06-.69-.36-.87l-3.69-2.27c-.22-.13-.14-.47.12-.49l4.32-.33c.35-.03.63-.27.72-.61l1.02-4.21c.06-.25.4-.28.5-.04l1.65,4.01c.13.32.46.52.8.49l4.32-.33c.25-.02.39.3.19.46l-3.3,2.81c-.26.22-.35.59-.22.91l1.65,4.01c.1.24-.16.46-.38.33Z"/>
      <path class="cls-4" d="M401.43,72.32l-1.8-.76c-.27-.11-.59-.04-.78.18l-1.28,1.48c-.18.21-.51.06-.49-.21l.17-1.95c.03-.29-.14-.57-.41-.69l-1.8-.76c-.25-.11-.22-.47.05-.53l1.91-.44c.29-.07.5-.31.52-.61l.17-1.95c.02-.27.38-.35.52-.12l1.01,1.68c.15.25.45.38.74.31l1.91-.44c.26-.06.45.25.28.46l-1.28,1.48c-.19.22-.22.55-.07.8l1.01,1.68c.14.23-.1.51-.35.4Z"/>
      <path class="cls-4" d="M270.75,61.07l-.49-.39c-.06-.05-.15-.05-.22,0l-.52.35c-.16.1-.35-.05-.29-.23l.22-.59c.03-.08,0-.16-.06-.21l-.49-.39c-.15-.12-.06-.35.13-.35l.63.03c.08,0,.15-.04.18-.12l.22-.59c.07-.18.32-.16.37.02l.17.6c.02.08.09.13.17.14l.63.03c.19,0,.26.25.1.36l-.52.35c-.07.04-.1.13-.08.2l.17.6c.05.18-.16.32-.31.2Z"/>
      <path class="cls-4" d="M482.19,91.87l-2.55-.88c-.36-.12-.77,0-1,.31l-1.62,2.16c-.21.27-.64.12-.64-.22l.04-2.7c0-.38-.24-.73-.6-.85l-2.55-.88c-.32-.11-.32-.57.01-.67l2.58-.79c.37-.11.62-.45.63-.83l.04-2.7c0-.34.45-.48.64-.2l1.55,2.21c.22.31.62.45.99.34l2.58-.79c.33-.1.59.28.39.55l-1.62,2.16c-.23.31-.24.73-.02,1.04l1.55,2.21c.2.28-.08.65-.4.54Z"/>
      <path class="cls-4" d="M452.93,55.78l-.41-1.26c-.06-.2-.25-.33-.46-.33h-1.33c-.18,0-.26-.24-.11-.34l1.07-.78c.17-.12.24-.34.17-.54l-.41-1.26c-.06-.18.14-.32.29-.21l1.07.78c.17.12.4.12.56,0l1.07-.78c.15-.11.35.04.29.21l-.41,1.26c-.06.2,0,.41.17.54l1.07.78c.15.11.07.34-.11.34h-1.33c-.21,0-.39.13-.46.33l-.41,1.26c-.06.18-.31.18-.36,0Z"/>
      <path class="cls-4" d="M237.92,97.07l-1.16.38c-.07.02-.12.09-.12.16v1.22c0,.14-.17.19-.26.08l-.71-.98c-.04-.06-.12-.09-.19-.06l-1.16.38c-.13.04-.24-.11-.16-.22l.71-.98c.04-.06.04-.14,0-.2l-.71-.98c-.08-.11.03-.26.16-.22l1.16.38c.07.02.15,0,.19-.06l.71-.98c.08-.11.26-.05.26.08v1.22c0,.08.05.14.12.16l1.16.38c.13.04.13.23,0,.27Z"/>
      <path class="cls-4" d="M182.47,77l1.02.25c.14.03.28-.02.36-.14l.56-.89c.14-.22.47-.14.49.12l.07,1.05c0,.14.11.26.25.29l1.02.25c.25.06.27.41.04.51l-.97.39c-.13.05-.21.18-.2.33l.07,1.05c.02.26-.3.39-.47.19l-.68-.8c-.09-.11-.24-.15-.37-.09l-.97.39c-.24.1-.46-.17-.33-.39l.56-.89c.07-.12.06-.27-.03-.38l-.68-.8c-.17-.2.02-.49.27-.43Z"/>
      <path class="cls-4" d="M137.38,42.25l-3.15-1.33c-.26-.11-.57-.04-.75.18l-2.24,2.59c-.16.19-.47.06-.45-.19l.29-3.41c.02-.28-.14-.55-.4-.66l-3.15-1.33c-.23-.1-.2-.43.04-.49l3.33-.78c.28-.06.48-.3.5-.58l.29-3.41c.02-.25.35-.33.48-.11l1.77,2.93c.15.24.43.36.71.3l3.33-.78c.24-.06.42.23.25.42l-2.24,2.59c-.19.22-.21.53-.06.77l1.77,2.93c.13.21-.09.47-.32.37Z"/>
      <path class="cls-4" d="M151.25,46.32l-.68-.25c-.19-.07-.4,0-.53.15l-.45.57c-.13.17-.4.07-.39-.14l.03-.73c0-.2-.12-.39-.31-.45l-.68-.25c-.2-.07-.19-.36.02-.42l.7-.2c.19-.06.33-.23.34-.43l.03-.73c0-.21.28-.29.4-.11l.41.6c.11.17.32.24.51.19l.7-.2c.2-.06.37.18.23.35l-.45.57c-.12.16-.13.38-.02.55l.41.6c.12.18-.06.4-.26.33Z"/>
      <path class="cls-4" d="M179.36,32.95l-2.16.7c-.2.06-.33.25-.33.46v2.27c0,.17-.22.25-.33.11l-1.34-1.84c-.12-.17-.34-.24-.54-.17l-2.16.7c-.17.05-.3-.14-.2-.28l1.34-1.84c.12-.17.12-.4,0-.56l-1.34-1.84c-.1-.14.04-.33.2-.28l2.16.7c.2.06.41,0,.54-.17l1.34-1.84c.1-.14.33-.07.33.11v2.27c0,.21.13.39.33.46l2.16.7c.17.05.17.29,0,.34Z"/>
      <path class="cls-4" d="M91.66,139.1l-3.01-.58c-.24-.05-.47.07-.59.28l-1.48,2.68c-.18.33-.68.23-.72-.14l-.38-3.04c-.03-.24-.21-.43-.44-.48l-3.01-.58c-.37-.07-.43-.57-.09-.73l2.78-1.3c.22-.1.34-.33.32-.57l-.38-3.04c-.05-.37.41-.59.67-.31l2.09,2.24c.16.18.42.23.64.12l2.78-1.3c.34-.16.68.21.5.54l-1.48,2.68c-.12.21-.08.47.08.65l2.09,2.24c.26.27.01.72-.36.64Z"/>
      <path class="cls-4" d="M82.86,110.77l-1.16.38s-.03.02-.03.04v1.22c0,.27-.34.38-.5.16l-.72-.98s-.03-.02-.05-.01l-1.16.38c-.26.08-.47-.21-.31-.43l.72-.98s.01-.03,0-.05l-.72-.98c-.16-.22.05-.51.31-.43l1.16.38s.04,0,.05-.01l.72-.98c.16-.22.5-.11.5.16v1.22s.01.03.03.04l1.16.38c.26.08.26.44,0,.53Z"/>
      <path class="cls-4" d="M162.64,97.08l-.99.32c-.18.06-.31.23-.31.42v1.05c0,.15-.19.21-.28.09l-.61-.85c-.11-.16-.31-.22-.5-.16l-.99.32c-.14.05-.26-.12-.17-.24l.61-.85c.11-.16.11-.37,0-.52l-.61-.85c-.09-.12.03-.29.17-.24l.99.32c.18.06.38,0,.5-.16l.61-.85c.09-.12.28-.06.28.09v1.05c0,.19.12.36.31.42l.99.32c.14.05.14.25,0,.3Z"/>
      <path class="cls-4" d="M320.46,46.89l-.73.15s-.06.04-.06.07l-.09.74c-.02.17-.25.22-.34.07l-.36-.65s-.05-.05-.09-.04l-.73.15c-.17.03-.29-.17-.17-.3l.51-.55s.03-.06.01-.09l-.36-.65c-.09-.15.07-.33.23-.25l.68.31s.07,0,.09-.02l.51-.55c.12-.13.33-.03.31.14l-.09.74s.01.07.05.08l.68.31c.16.07.13.31-.04.34Z"/>
      <path class="cls-4" d="M413.21,59.72l-.72-.26c-.19-.07-.4,0-.52.15l-.47.61c-.09.12-.29.05-.28-.1l.02-.77c0-.2-.12-.38-.31-.44l-.72-.26c-.14-.05-.14-.26,0-.3l.73-.22c.19-.06.32-.23.33-.43l.02-.77c0-.15.2-.21.29-.08l.43.63c.11.16.32.24.51.18l.73-.22c.15-.04.26.13.17.25l-.47.61c-.12.16-.13.38-.01.54l.43.63c.09.13-.04.29-.18.24Z"/>
    </g>
  </g>
  <path class="cls-2" d="M85.56,70.31l1.02.25c.14.03.28-.02.36-.14l.56-.89c.14-.22.47-.14.49.12l.07,1.05c0,.14.11.26.25.29l1.02.25c.25.06.27.41.04.51l-.97.39c-.13.05-.21.18-.2.33l.07,1.05c.02.26-.3.39-.47.19l-.68-.8c-.09-.11-.24-.15-.37-.09l-.97.39c-.24.1-.46-.17-.33-.39l.56-.89c.07-.12.06-.27-.03-.38l-.68-.8c-.17-.2.02-.49.27-.43Z"/>
</svg>